# xmcd CD database file
#
# Track frame offsets:
#	150
#	13026
#	29131
#	50208
#	65608
#	81732
#	95263
#	115095
#	125950
#	142204
#	153553
#
# Disc length: 2304 seconds
#
# Revision: 0
# Processed by: cddbd v1.4PL0 Copyright (c) Steve Scherf et al.
# Submitted via: CDex 1.40Release
#
DISCID=ad08fe0b
DTITLE=Bob Brown - Do Right Man
DYEAR=2003
DGENRE=Country
TTITLE0=Do Right Man
TTITLE1=Go Getter
TTITLE2=In Their Dreams
TTITLE3=Tejano Moon
TTITLE4=Write Myself A Letter-All Your Fault
TTITLE5=More Whiskey
TTITLE6=Wayfaring Stranger
TTITLE7=Brenda's Waltz
TTITLE8=You Beat All
TTITLE9=Christmas In Texas
TTITLE10=I Can't Believe
EXTD=YEAR: 2003 ID3G: 2
EXTT0=
EXTT1=
EXTT2=
EXTT3=
EXTT4=
EXTT5=
EXTT6=
EXTT7=
EXTT8=
EXTT9=
EXTT10=
PLAYORDER=
